<?xml version="1.0" standalone="no"?>
<!DOCTYPE svg PUBLIC "-//W3C//DTD SVG 20010904//EN"
 "http://www.w3.org/TR/2001/REC-SVG-20010904/DTD/svg10.dtd">
<svg version="1.0" xmlns="http://www.w3.org/2000/svg"
 width="500.000000pt" height="500.000000pt" viewBox="0 0 500.000000 500.000000"
 preserveAspectRatio="xMidYMid meet">

<g transform="translate(0.000000,500.000000) scale(0.100000,-0.100000)"
fill="#000000" stroke="none">
<path d="M2280 4573 c-142 -15 -356 -66 -500 -119 -497 -184 -915 -562 -1148
-1039 -323 -661 -273 -1443 133 -2060 150 -228 379 -454 609 -604 113 -73 321
-173 459 -220 453 -155 962 -146 1403 24 550 213 973 626 1192 1162 101 246
142 447 149 719 9 325 -35 578 -148 851 -288 696 -915 1179 -1659 1279 -95 12
-397 17 -490 7z m535 -352 c340 -62 666 -234 915 -482 91 -91 225 -261 261
-332 27 -52 37 -155 19 -197 -30 -73 -215 -192 -316 -204 -33 -4 -169 -23
-304 -42 -216 -31 -389 -45 -570 -47 -32 0 -85 10 -125 23 -102 33 -255 32
-385 -2 -91 -25 -102 -25 -265 -18 -99 5 -275 23 -420 43 -137 20 -278 39
-313 43 -34 4 -66 12 -70 19 -4 7 -39 28 -77 48 -203 101 -247 191 -163 331
218 371 598 660 1023 781 235 66 543 80 790 36z m-1355 -1406 c200 -60 304
-96 317 -108 8 -8 9 -17 4 -26 -8 -12 -19 -12 -73 3 -131 36 -408 128 -414
137 -8 13 16 41 30 36 6 -3 67 -21 136 -42z m2215 1 c0 -15 -16 -24 -75 -43
-288 -90 -388 -119 -398 -115 -7 2 -12 12 -12 22 0 15 27 27 148 65 81 26 179
57 217 70 83 28 120 28 120 1z m-2314 -201 c107 -47 308 -143 448 -212 287
-142 323 -169 361 -269 39 -105 102 -490 135 -830 l15 -160 -25 -113 c-28
-129 -65 -205 -109 -228 -37 -19 -95 -10 -240 39 -520 173 -928 581 -1105
1104 -53 156 -81 315 -88 494 l-6 145 28 33 c48 57 75 65 235 72 80 4 148 7
151 8 4 1 94 -36 200 -83z m2717 64 c61 -12 113 -52 143 -110 49 -98 2 -461
-92 -696 -95 -240 -233 -447 -416 -624 -192 -185 -408 -319 -653 -402 -153
-53 -237 -69 -270 -52 -58 30 -83 81 -100 205 -6 47 -16 93 -21 103 -22 41
142 1021 182 1086 10 17 40 44 66 61 77 49 532 274 726 358 l179 77 101 3 c56
1 126 -3 155 -9z m-1559 -953 c8 -9 11 -85 9 -252 l-3 -239 -22 -3 -23 -3 0
249 c0 137 3 252 7 255 10 10 19 8 32 -7z"/>
</g>
</svg>
