<?xml version="1.0" standalone="no"?>
<!DOCTYPE svg PUBLIC "-//W3C//DTD SVG 20010904//EN"
 "http://www.w3.org/TR/2001/REC-SVG-20010904/DTD/svg10.dtd">
<svg version="1.0" xmlns="http://www.w3.org/2000/svg"
 width="500.000000pt" height="500.000000pt" viewBox="0 0 500.000000 500.000000"
 preserveAspectRatio="xMidYMid meet">

<g transform="translate(0.000000,500.000000) scale(0.100000,-0.100000)"
fill="#000000" stroke="none">
<path d="M3380 4809 c-367 -46 -702 -264 -908 -592 -201 -321 -237 -744 -93
-1113 121 -312 406 -589 731 -711 235 -89 551 -96 802 -17 293 92 573 319 722
587 110 196 178 481 133 551 -19 28 -55 41 -90 32 -30 -7 -280 -151 -554 -319
l-222 -136 -270 150 -271 151 0 311 0 312 402 230 c221 127 414 241 430 253
32 27 39 83 13 119 -21 30 -125 87 -224 123 -171 63 -423 92 -601 69z"/>
<path d="M1238 2073 c-1104 -1105 -1023 -1011 -1023 -1188 0 -140 10 -156 247
-396 208 -211 239 -234 348 -249 72 -10 163 5 220 36 31 17 364 343 1015 994
533 533 967 971 965 972 -3 2 -45 23 -95 47 -142 68 -250 146 -376 271 -127
126 -229 269 -289 402 -19 43 -37 78 -40 78 -3 0 -440 -435 -972 -967z m-102
-855 c118 -80 106 -252 -20 -309 -54 -24 -100 -24 -154 2 -80 39 -119 133 -88
213 42 110 171 156 262 94z"/>
</g>
</svg>
